<svg width="100" height="48" viewBox="0 0 100 48" fill="none" xmlns="http://www.w3.org/2000/svg">
<path d="M33.1121 3.82968H39.1871V25.7599H33.1121V3.82968ZM42.3747 25.7599V3.82968H59.0799V8.08148H48.4491V12.6067H58.2287V16.8592H48.4491V21.506H59.0799V25.7599H42.3747ZM62.4834 25.7599V3.82968H79.1844V8.08148H68.5566V12.6067H78.3329V16.8592H68.5566V21.506H79.1844V25.7599H62.4834ZM82.5859 25.7599V3.82968H99.2912V8.08148H88.6642V12.6067H98.4412V16.8592H88.6642V21.506H99.2912V25.7599H82.5859ZM13.8574 16.9954C13.7772 18.5439 13.7574 19.977 13.6428 21.5292C14.2558 21.5851 14.9472 21.6384 15.6007 21.5433L15.4056 17.2158L15.3713 17.0098C14.8737 17.0293 14.4025 17.0491 13.8574 16.9954ZM10.0296 12.6468C9.27478 13.0253 8.16428 13.5972 8.2867 14.6324C8.44841 15.1979 9.06055 15.563 9.54487 15.7955C12.2221 16.9751 15.7762 17.0151 18.6027 16.1347C19.3004 15.8658 20.2372 15.4757 20.3655 14.6209C20.358 13.9144 19.6103 13.4698 19.0729 13.1994V13.1658C19.2603 13.0917 19.4758 13.0253 19.6698 13.005V12.9859C18.723 12.8163 17.809 12.5686 16.892 12.3262C17.0686 12.7287 17.196 13.153 17.3433 13.5711C17.6187 13.4831 17.9012 13.4161 18.1985 13.3756C18.6821 13.5638 19.3744 13.833 19.4431 14.4376C19.4969 15.0031 18.8781 15.2786 18.4873 15.508C16.4139 16.2625 14.0812 16.3361 11.9189 15.7624C11.3217 15.5743 10.4597 15.3326 10.3857 14.5721C10.8097 13.5711 11.9061 13.3628 12.8219 13.1195C12.3511 12.8163 11.8726 12.5479 11.4164 12.2104C10.9238 12.2377 10.4738 12.4532 10.0296 12.6468ZM14.6102 6.60617L14.3417 7.4677L12.9959 11.3228C13.333 11.3572 13.7503 11.3228 14.0812 11.3572V11.389L13.8843 15.7496L13.9182 15.7955C14.3488 15.8377 14.8865 15.8592 15.3253 15.7844V15.7156L15.1495 11.4862L15.176 11.3431L16.3601 11.3228C15.7696 9.76234 15.1967 8.18612 14.6449 6.60617H14.6102ZM13.9849 4.66928C14.975 3.99471 15.8634 4.93771 16.6306 5.47663C19.597 7.86433 22.3962 10.5974 24.5291 13.6837C24.798 14.082 24.9195 14.7003 24.6784 15.1512C24.1255 16.0734 23.3793 16.9151 22.6721 17.77V17.8168C20.9085 19.6941 19.046 21.624 17.0335 23.2137C16.0512 23.8114 15.1495 25.1167 13.8843 24.3082C11.0036 22.203 8.24699 19.5857 5.91017 16.7786C5.51394 16.1615 4.89519 15.6557 4.61974 14.9559C4.23508 14.0079 5.08296 13.3279 5.56812 12.6141C7.95085 9.67548 10.9101 6.79394 13.9849 4.66928ZM16.4676 1.86261L15.3713 0.308717C15.2368 0.226825 15.0693 0.0911643 14.9208 0.0514588C14.5973 -0.0887511 14.2487 0.0808243 13.9849 0.281006L12.0008 2.86517C8.81776 6.80717 5.04988 10.4882 0.939123 13.3098C0.614035 13.5638 0.130952 13.8115 0.0304478 14.23C-0.0775015 14.6064 0.118544 14.917 0.352228 15.1512C3.64406 17.4185 6.79112 20.1101 9.59243 23.1799C10.0896 23.7022 10.4928 24.2217 10.9792 24.7122C11.7986 25.8025 12.7611 26.9015 13.5141 28.0712C13.7503 28.318 13.7908 28.7238 14.1603 28.8441C14.4493 28.9443 14.8063 29.012 15.0821 28.8441L15.3563 28.5686C18.7624 23.7436 23.0819 19.4103 27.9082 15.9117C28.3913 15.4803 29.3141 15.3198 29.3272 14.5192C29.2929 14.1498 29.0779 13.7858 28.7606 13.584L28.6816 13.5711C26.198 11.8816 23.884 9.97079 21.7039 7.80312L19.2947 5.28637C18.3186 4.2044 17.3701 3.00579 16.4676 1.86261ZM13.6291 4.07618C14.5973 3.32261 15.8158 3.94838 16.6306 4.64157C17.4839 5.29382 18.3727 6.03292 19.1528 6.78815L19.2947 6.86963C21.4549 8.87392 23.4612 11.1016 25.1094 13.4566C25.3766 13.8664 25.6127 14.331 25.4635 14.8748C24.9137 16.2488 23.7971 17.344 22.8205 18.5439C20.7079 20.8178 18.4794 23.0182 15.9846 24.7735C15.48 25.1304 14.7992 25.4601 14.1946 25.1768C12.3582 24.2155 10.8097 22.6409 9.2024 21.2061C7.33831 19.4778 5.46761 17.4652 4.05476 15.36C3.84466 15.0647 3.78551 14.7003 3.79171 14.3107C3.97328 13.584 4.47126 12.9859 4.94234 12.3734C6.61163 10.2458 8.65645 8.22788 10.7216 6.38447C10.7691 6.33732 10.8572 6.23683 10.9321 6.18884C11.8188 5.42203 12.6998 4.74332 13.6291 4.07618Z" fill="white"/>
<path d="M99.2912 35.0811H0V35.5876H99.2912V35.0811Z" fill="url(#paint0_linear)"/>
<path d="M3.05712 43.3143L1.71973 39.8203H2.11537L2.99582 42.1719C3.05526 42.3465 3.10727 42.5043 3.15185 42.6456C3.20014 42.783 3.24101 42.913 3.27444 43.0356C3.31902 42.8796 3.36545 42.7255 3.41376 42.5731C3.46205 42.4208 3.50663 42.287 3.5475 42.1719L4.42794 39.8203H4.81802L3.47505 43.3143H3.05712Z" fill="white"/>
<path d="M6.46211 39.8203V43.3143H6.10547V39.8203H6.46211Z" fill="white"/>
<path d="M10.5796 39.8203V40.1491H9.35923V43.3143H9.0026V40.1491H7.78223V39.8203H10.5796Z" fill="white"/>
<path d="M14.3574 43.3143L13.02 39.8203H13.4157L14.2961 42.1719C14.3556 42.3465 14.4076 42.5043 14.4521 42.6456C14.5005 42.783 14.5413 42.913 14.5747 43.0356C14.6193 42.8796 14.6658 42.7255 14.714 42.5731C14.7624 42.4208 14.807 42.287 14.8478 42.1719L15.7282 39.8203H16.1183L14.7753 43.3143H14.3574Z" fill="white"/>
<path d="M19.6951 42.9743V43.3143H17.4048V39.8203H19.6449V40.1491H17.7614V41.3639H19.4387V41.6815H17.7614V42.9743H19.6951Z" fill="white"/>
<path d="M23.2414 42.9743V43.3143H21.1294V39.8203H21.486V42.9743H23.2414Z" fill="white"/>
<path d="M26.6784 42.9743V43.3143H24.5664V39.8203H24.923V42.9743H26.6784Z" fill="white"/>
<path d="M30.7853 41.5597C30.7853 42.1913 30.6646 42.6482 30.4231 42.9305C30.1853 43.2128 29.7953 43.3541 29.2528 43.3541C28.6622 43.3541 28.2573 43.224 28.038 42.964C27.8226 42.704 27.7148 42.2359 27.7148 41.5597C27.7148 40.9281 27.8338 40.4712 28.0715 40.1889C28.313 39.9066 28.7067 39.7654 29.2528 39.7654C29.8399 39.7654 30.2411 39.8954 30.4565 40.1555C30.6757 40.4155 30.7853 40.8836 30.7853 41.5597ZM28.2609 42.6519C28.3426 42.782 28.4579 42.8767 28.6064 42.9361C28.755 42.9918 28.9705 43.0197 29.2528 43.0197C29.6912 43.0197 29.9959 42.9102 30.1667 42.6909C30.3376 42.4717 30.4231 42.0947 30.4231 41.5597C30.4231 41.2886 30.4082 41.0657 30.3785 40.891C30.3487 40.7164 30.3024 40.5753 30.2392 40.4675C30.1612 40.3338 30.0478 40.239 29.8992 40.1833C29.7544 40.1239 29.5389 40.0942 29.2528 40.0942C28.8107 40.0942 28.5042 40.2037 28.3334 40.4229C28.1625 40.6422 28.0771 41.0211 28.0771 41.5597C28.0771 41.8309 28.0919 42.0538 28.1216 42.2284C28.1514 42.4031 28.1977 42.5441 28.2609 42.6519Z" fill="white"/>
<path d="M32.6477 42.0214V43.3143H32.291V39.8203H33.4501C33.9293 39.8203 34.2748 39.9039 34.4866 40.0711C34.6983 40.2382 34.8042 40.5094 34.8042 40.8847C34.8042 41.193 34.7337 41.4382 34.5924 41.6202C34.4512 41.8022 34.2377 41.9211 33.9516 41.9769L34.8878 43.3143H34.4587L33.5727 42.0214H32.6477ZM34.442 40.8847C34.442 40.6209 34.3659 40.4333 34.2135 40.3218C34.0612 40.2067 33.8067 40.1491 33.4501 40.1491H32.6477V41.7038H33.4501C33.7956 41.7038 34.0463 41.6388 34.2024 41.5088C34.3621 41.3787 34.442 41.1708 34.442 40.8847Z" fill="white"/>
<path d="M38.5886 42.9743V43.3143H36.2983V39.8203H38.5385V40.1491H36.655V41.3639H38.3323V41.6815H36.655V42.9743H38.5886Z" fill="white"/>
<path d="M43.1523 41.7993L42.2662 41.5876C42.0359 41.5319 41.8706 41.439 41.7703 41.309C41.67 41.1789 41.6198 40.9969 41.6198 40.7629C41.6198 40.4174 41.7182 40.1647 41.9152 40.005C42.1121 39.8453 42.4242 39.7654 42.8513 39.7654C43.0297 39.7654 43.1894 39.7746 43.3306 39.7932C43.4755 39.8081 43.6055 39.8323 43.7206 39.8657V40.1945C43.598 40.161 43.4624 40.1368 43.3139 40.122C43.1653 40.1034 43.0093 40.0942 42.8458 40.0942C42.5262 40.0942 42.3016 40.1424 42.1715 40.239C42.0414 40.3319 41.9765 40.4973 41.9765 40.735C41.9765 40.891 42.008 41.008 42.0712 41.0861C42.1344 41.1641 42.2384 41.2198 42.3833 41.2532L43.2693 41.4706C43.5554 41.5374 43.7466 41.6341 43.8432 41.7603C43.9399 41.8829 43.9881 42.0724 43.9881 42.3287C43.9881 42.704 43.8915 42.9696 43.6984 43.1256C43.5052 43.2779 43.1968 43.3541 42.7733 43.3541C42.5468 43.3541 42.3275 43.3392 42.1158 43.3095C41.904 43.2797 41.7369 43.2407 41.6143 43.1925V42.8525C41.8 42.9083 41.9895 42.9509 42.1826 42.9807C42.3758 43.0067 42.5727 43.0197 42.7733 43.0197C43.0854 43.0197 43.3046 42.9732 43.4309 42.8804C43.5571 42.7838 43.6203 42.6018 43.6203 42.3343C43.6203 42.1671 43.5888 42.0464 43.5256 41.9721C43.4624 41.8977 43.338 41.8402 43.1523 41.7993Z" fill="white"/>
<path d="M47.8057 39.8203V40.1491H46.5853V43.3143H46.2287V40.1491H45.0083V39.8203H47.8057Z" fill="white"/>
<path d="M51.4618 41.9434V39.8203H51.8184V41.9434C51.8184 42.4301 51.707 42.7868 51.4841 43.0133C51.2612 43.2399 50.9138 43.3533 50.442 43.3533C49.9702 43.3533 49.6265 43.2418 49.4111 43.0189C49.1957 42.796 49.0879 42.4375 49.0879 41.9434V39.8203H49.4445V41.9434C49.4445 42.3372 49.5206 42.6158 49.673 42.7793C49.8254 42.939 50.0817 43.0189 50.442 43.0189C50.8135 43.0189 51.0754 42.939 51.2277 42.7793C51.3837 42.6158 51.4618 42.3372 51.4618 41.9434Z" fill="white"/>
<path d="M54.4026 43.3143H53.4497V39.8203H54.4026C54.7629 39.8203 55.0471 39.8501 55.2552 39.9095C55.4669 39.9652 55.6359 40.058 55.7623 40.1881C55.8847 40.3182 55.974 40.4946 56.0298 40.7175C56.0892 40.9367 56.1189 41.219 56.1189 41.5645C56.1189 42.17 55.9833 42.614 55.7121 42.8963C55.4409 43.1749 55.0044 43.3143 54.4026 43.3143ZM55.4892 40.45C55.3926 40.3422 55.2608 40.2661 55.0936 40.2215C54.9264 40.1733 54.696 40.1491 54.4026 40.1491H53.8063V42.9743H54.4026C54.8966 42.9743 55.244 42.8666 55.4447 42.6511C55.6489 42.4357 55.751 42.0735 55.751 41.5645C55.751 41.2784 55.7288 41.0482 55.6843 40.8735C55.6434 40.6952 55.5784 40.554 55.4892 40.45Z" fill="white"/>
<path d="M59.9167 42.9743V43.3143H57.6265V39.8203H59.8666V40.1491H57.9831V41.3639H59.6604V41.6815H57.9831V42.9743H59.9167Z" fill="white"/>
<path d="M64.1591 39.8203V43.3143H63.7802L61.6905 40.3887V43.3143H61.3506V39.8203H61.7295L63.8192 42.7737V39.8203H64.1591Z" fill="white"/>
<path d="M68.2764 39.8203V40.1491H67.056V43.3143H66.6994V40.1491H65.479V39.8203H68.2764Z" fill="white"/>
<path d="M72.5877 43.0197C72.7399 43.0197 72.8978 43.0011 73.0613 42.964C73.2285 42.9269 73.3882 42.8767 73.5406 42.8135V43.1367C73.3362 43.2184 73.1561 43.276 73.0001 43.3095C72.844 43.3392 72.6824 43.3541 72.5152 43.3541C71.9876 43.3541 71.6143 43.2166 71.3952 42.9417C71.176 42.6631 71.0664 42.2025 71.0664 41.5597C71.0664 40.9393 71.1908 40.4861 71.4398 40.2C71.6924 39.9103 72.0936 39.7654 72.6434 39.7654C72.8143 39.7654 72.9666 39.7691 73.1004 39.7765C73.2341 39.784 73.3548 39.7969 73.4626 39.8155V40.1387C73.3362 40.1239 73.2081 40.1128 73.0781 40.1053C72.948 40.0978 72.8031 40.0942 72.6434 40.0942C72.2013 40.0942 71.8892 40.2075 71.7072 40.4341C71.5252 40.657 71.4342 41.0322 71.4342 41.5597C71.4342 42.1021 71.5159 42.4811 71.6794 42.6965C71.8465 42.9119 72.1494 43.0197 72.5877 43.0197Z" fill="white"/>
<path d="M75.2805 43.3143H74.9238V39.8203H75.2805V41.375H77.2866V39.8203H77.6488V43.3143H77.2866V41.7094H75.2805V43.3143Z" fill="white"/>
<path d="M79.3233 43.3143H78.9443L80.3486 39.8203H80.722L82.1206 43.3143H81.7361L81.3795 42.3948H79.6855L79.3233 43.3143ZM80.5269 40.1379C80.4973 40.2308 80.4638 40.333 80.4266 40.4444C80.3895 40.5559 80.3282 40.7286 80.2427 40.9627L79.8081 42.0772H81.2569L80.8223 40.9627C80.7665 40.8178 80.7127 40.6766 80.6607 40.5392C80.6124 40.398 80.5678 40.2642 80.5269 40.1379Z" fill="white"/>
<path d="M83.7697 42.1385V43.3143H83.4131V39.8203H84.5722C85.0514 39.8203 85.3969 39.9076 85.6086 40.0822C85.8204 40.2569 85.9263 40.5428 85.9263 40.9404C85.9263 41.3453 85.8167 41.6462 85.5975 41.8431C85.3784 42.0401 85.0421 42.1385 84.5889 42.1385H83.7697ZM85.5641 40.9404C85.5641 40.6581 85.488 40.4556 85.3356 40.333C85.1834 40.2104 84.9288 40.1491 84.5722 40.1491H83.7697V41.8208H84.5722C84.9215 41.8208 85.174 41.7521 85.33 41.6147C85.4861 41.4734 85.5641 41.2488 85.5641 40.9404Z" fill="white"/>
<path d="M89.7632 39.8203V40.1491H88.5428V43.3143H88.1862V40.1491H86.9658V39.8203H89.7632Z" fill="white"/>
<path d="M93.3699 42.9743V43.3143H91.0796V39.8203H93.3197V40.1491H91.4362V41.3639H93.1135V41.6815H91.4362V42.9743H93.3699Z" fill="white"/>
<path d="M95.1604 42.0214V43.3143H94.8037V39.8203H95.9628C96.442 39.8203 96.7875 39.9039 96.9993 40.0711C97.211 40.2382 97.3169 40.5094 97.3169 40.8847C97.3169 41.193 97.2463 41.4382 97.1051 41.6202C96.9641 41.8022 96.7504 41.9211 96.4643 41.9769L97.4005 43.3143H96.9714L96.0854 42.0214H95.1604ZM96.9547 40.8847C96.9547 40.6209 96.8786 40.4333 96.7262 40.3218C96.574 40.2067 96.3194 40.1491 95.9628 40.1491H95.1604V41.7038H95.9628C96.3083 41.7038 96.559 41.6388 96.7151 41.5088C96.8749 41.3787 96.9547 41.1708 96.9547 40.8847Z" fill="white"/>
<path d="M99.2912 47.4935H0V48.0001H99.2912V47.4935Z" fill="url(#paint1_linear)"/>
<defs>
<linearGradient id="paint0_linear" x1="99.2912" y1="35.3343" x2="1.94427e-06" y2="35.3351" gradientUnits="userSpaceOnUse">
<stop stop-color="white" stop-opacity="0"/>
<stop offset="0.5" stop-color="white"/>
<stop offset="1" stop-color="white" stop-opacity="0"/>
</linearGradient>
<linearGradient id="paint1_linear" x1="99.2912" y1="47.7468" x2="1.94427e-06" y2="47.7476" gradientUnits="userSpaceOnUse">
<stop stop-color="white" stop-opacity="0"/>
<stop offset="0.5" stop-color="white"/>
<stop offset="1" stop-color="white" stop-opacity="0"/>
</linearGradient>
</defs>
</svg>
